<svg width="540" height="203" viewBox="0 0 540 203" fill="none" xmlns="http://www.w3.org/2000/svg">
<path d="M32.3809 84.34H17.9678C8.0258 84.34 0 92.3936 0 102.308C0 112.25 8.05357 120.276 17.9678 120.276H32.3809C42.3229 120.276 50.3487 112.222 50.3487 102.308C50.3487 92.3936 42.3229 84.34 32.3809 84.34Z" fill="#034E6B"/>
<path d="M147.853 140.493L171.874 174.013C180.317 185.787 171.902 202.172 157.406 202.172C151.657 202.172 146.27 199.395 142.937 194.73L118.915 161.21C114.472 155.017 114.472 146.658 118.915 140.465C126.025 130.579 140.771 130.579 147.853 140.493Z" fill="#F45002"/>
<path d="M81.5637 109.112L23.5502 28.1599C15.1078 16.385 23.5224 0.000163817 38.0188 0.000163817C43.7674 0.000163817 49.155 2.77725 52.4875 7.44277L110.501 88.3673C114.944 94.5602 112.417 101.503 107.974 107.724L104.863 110.223C97.7541 120.109 88.673 119.026 81.5637 109.112Z" fill="#3DA599"/>
<path d="M118.916 36.2413L139.55 7.4428C142.882 2.77728 148.27 0.00018799 154.018 0.00018799C168.515 0.00018799 176.929 16.385 168.487 28.1599L147.825 56.9862C140.716 66.9004 125.997 66.9004 118.888 56.9862C114.472 50.7932 114.472 42.462 118.916 36.2413Z" fill="#FE6B5D"/>
<path d="M110.501 109.112L49.1276 194.73C45.7951 199.395 40.4075 202.172 34.659 202.172C20.1625 202.172 11.7479 185.787 20.1903 174.013L81.5641 88.3947C88.6734 78.4805 103.392 78.4805 110.501 88.3947C114.945 94.5876 114.945 102.919 110.501 109.112Z" fill="#EFC303"/>
<path d="M284.531 119.217L264.513 96.4901L284.531 73.7628C286.036 71.9567 286.939 69.8495 286.939 67.4414C286.939 61.5714 281.521 56.755 276.103 56.755C272.49 56.755 269.781 58.4106 267.523 61.1199L251.118 80.5359L234.712 61.1199C232.755 58.4106 229.745 56.755 226.283 56.755C220.714 56.755 215.296 61.5714 215.296 67.4414C215.296 69.8495 216.199 71.9567 217.704 73.7628L237.722 96.4901L217.704 119.217C216.048 121.024 215.145 123.281 215.145 125.689C215.145 131.409 220.564 136.225 226.133 136.225C229.745 136.225 232.304 134.419 234.561 131.86L251.118 112.444L267.674 131.86C269.932 134.419 272.641 136.225 276.103 136.225C281.822 136.225 287.09 131.409 287.09 125.689C287.09 123.281 286.337 121.024 284.531 119.217Z" fill="#034E6B"/>
<path d="M345.316 56.3035C335.081 56.3035 327.706 62.0229 325.749 67.2908V68.6454C325.749 62.1734 320.18 56.755 313.708 56.755C307.387 56.755 301.366 62.1734 301.366 68.6454V153.384C301.366 160.006 306.935 165.274 313.407 165.274C319.879 165.274 325.599 160.006 325.599 153.384V127.195C327.856 131.108 334.629 136.526 345.316 136.526C361.872 136.526 381.439 123.883 381.439 96.3396C381.439 69.5485 361.571 56.3035 345.316 56.3035ZM340.8 116.057C334.178 116.057 324.696 111.391 324.696 96.3396C324.696 81.5895 334.178 76.7731 340.8 76.7731C349.38 76.7731 357.357 83.5461 357.357 96.3396C357.357 109.284 349.38 116.057 340.8 116.057Z" fill="#034E6B"/>
<path d="M460.303 56.755C453.831 56.755 448.262 62.1734 448.262 68.6454V67.2908C446.306 62.0229 438.931 56.3035 428.696 56.3035C412.44 56.3035 392.573 69.5485 392.573 96.3396C392.573 123.883 412.139 136.526 428.696 136.526C439.683 136.526 446.306 130.957 448.563 127.044C449.767 132.462 454.734 136.376 460.303 136.376C466.775 136.376 472.645 131.108 472.645 124.485V68.6454C472.645 62.1734 466.625 56.755 460.303 56.755ZM433.211 116.057C424.632 116.057 416.655 109.284 416.655 96.3396C416.655 83.5461 424.632 76.7731 433.211 76.7731C439.834 76.7731 449.316 81.5895 449.316 96.3396C449.316 111.391 439.834 116.057 433.211 116.057Z" fill="#034E6B"/>
<path d="M531.17 115.154C529.514 115.003 526.955 115.605 525.45 115.605C522.59 115.605 521.386 113.046 521.386 108.983V75.7195H530.116C535.986 75.7195 539.598 71.8062 539.598 66.5383C539.598 61.1199 535.986 57.2065 530.116 57.2065H521.386V48.4769C521.386 41.8543 515.817 36.4359 509.345 36.4359C502.873 36.4359 497.304 41.8543 497.304 48.4769V57.2065H494.294C488.424 57.2065 484.661 61.1199 484.661 66.5383C484.661 71.8062 488.424 75.7195 494.294 75.7195H497.304V107.779C497.304 132.613 509.195 136.225 520.784 136.225C532.976 136.225 539.598 131.71 539.598 123.883C539.598 118.314 536.438 115.154 531.17 115.154Z" fill="#034E6B"/>
</svg>
